<?xml version="1.0" encoding="UTF-8"?>
<svg id="Logos" xmlns="http://www.w3.org/2000/svg" viewBox="0 0 234.61 234.61">
  <defs>
    <style>
      .cls-1 {
        fill: #231f20;
      }

      .cls-2 {
        fill: #fff;
      }

      .cls-3 {
        fill: #ec1c24;
      }
    </style>
  </defs>
  <g>
    <g>
      <g>
        <circle class="cls-3" cx="117.3" cy="117.3" r="117.3"/>
        <line class="cls-1" x1="93.46" y1="46.79" x2="93.45" y2="46.77"/>
        <line class="cls-1" x1="135.32" y1="46.79" x2="135.31" y2="46.77"/>
      </g>
      <path class="cls-2" d="M147.05,88.93v-3.01c0-.7.17-.88,1.24-1.27l9.35-3.37c5.25-1.85,8.29-3.86,8.29-8.69v-6.25c0-5.38-2.73-8.11-8.11-8.11h-12.29c-5.38,0-8.11,2.73-8.11,8.11v5.01h9.91v-3.74c0-.57.01-.58.58-.58h7.36c.57,0,.58.01.58.58v3.49c0,.7-.18.83-1.18,1.22l-9.41,3.38c-4.69,1.7-8.28,3.42-8.28,8.69v13.53h29.06v-8.97h-18.98Z"/>
    </g>
    <g>
      <polygon class="cls-2" points="67.57 91.19 67.57 177.74 96.69 177.74 96.69 131.33 67.57 91.19"/>
      <polygon class="cls-2" points="136.77 106.76 136.77 120.74 89.82 58.88 67.57 58.88 67.57 74.06 105.8 126.75 105.76 126.78 143.47 177.74 165.89 177.74 165.89 106.76 136.77 106.76"/>
    </g>
  </g>
  <path class="cls-1" d="M197.88,11.83v1.74h-8.75v-1.74h8.75ZM194.65,11.83v10.66h-2.26v-10.66h2.26ZM211.51,11.83v10.66h-2.23v-5.1l.23-2.81h-.03l-.29.87-2.65,7.04h-1.62l-2.68-7.04-.29-.87h-.03l.23,2.81v5.1h-2.23v-10.66h2.84l2.2,5.81.74,2.07h.06l.71-2.07,2.23-5.81h2.81Z"/>
</svg>